<?xml version="1.0" encoding="UTF-8" standalone="no"?>
<!DOCTYPE svg PUBLIC "-//W3C//DTD SVG 1.1//EN"
 "http://www.w3.org/Graphics/SVG/1.1/DTD/svg11.dtd">
<!-- Generated by graphviz version 2.38.0 (20140413.2041)
 -->
<!-- Title: models_diagram Pages: 1 -->
<svg width="713pt" height="694pt"
 viewBox="0.00 0.00 713.00 694.00" xmlns="http://www.w3.org/2000/svg" xmlns:xlink="http://www.w3.org/1999/xlink">
<g id="graph0" class="graph" transform="scale(1 1) rotate(0) translate(4 690)">
<title>models_diagram</title>
<polygon fill="none" stroke="none" points="-4,4 -4,-690 709,-690 709,4 -4,4"/>
<!-- _diagram_info -->
<g id="node1" class="node"><title>_diagram_info</title>
<text text-anchor="start" x="8" y="-664.6" font-family="Times,serif" font-size="13.00">Models diagram</text>
<text text-anchor="start" x="8" y="-650.6" font-family="Times,serif" font-size="13.00">Date: Sep 11 2017 &#45; 11:44</text>
<text text-anchor="start" x="8" y="-636.6" font-family="Times,serif" font-size="13.00">Migration version: 20170911141852</text>
<text text-anchor="start" x="8" y="-622.6" font-family="Times,serif" font-size="13.00">Generated by RailRoady 1.5.3</text>
<text text-anchor="start" x="8" y="-608.6" font-family="Times,serif" font-size="13.00">http://railroady.prestonlee.com</text>
</g>
<!-- ApplicationRecord -->
<g id="node2" class="node"><title>ApplicationRecord</title>
<ellipse fill="none" stroke="black" cx="309" cy="-640" rx="77.1866" ry="18"/>
<text text-anchor="middle" x="309" y="-636.3" font-family="Times,serif" font-size="14.00">ApplicationRecord</text>
</g>
<!-- UserSong -->
<g id="node3" class="node"><title>UserSong</title>
<path fill="none" stroke="black" d="M398,-0.5C398,-0.5 618,-0.5 618,-0.5 624,-0.5 630,-6.5 630,-12.5 630,-12.5 630,-109.5 630,-109.5 630,-115.5 624,-121.5 618,-121.5 618,-121.5 398,-121.5 398,-121.5 392,-121.5 386,-115.5 386,-109.5 386,-109.5 386,-12.5 386,-12.5 386,-6.5 392,-0.5 398,-0.5"/>
<text text-anchor="middle" x="508" y="-106.3" font-family="Times,serif" font-size="14.00">UserSong</text>
<polyline fill="none" stroke="black" points="386,-98.5 630,-98.5 "/>
<text text-anchor="start" x="394" y="-83.3" font-family="Times,serif" font-size="14.00">id :integer</text>
<text text-anchor="start" x="394" y="-68.3" font-family="Times,serif" font-size="14.00">user_id :integer</text>
<text text-anchor="start" x="394" y="-53.3" font-family="Times,serif" font-size="14.00">song_id :integer</text>
<text text-anchor="start" x="394" y="-38.3" font-family="Times,serif" font-size="14.00">position :integer</text>
<text text-anchor="start" x="394" y="-23.3" font-family="Times,serif" font-size="14.00">created_at :timestamp without time zone</text>
<text text-anchor="start" x="394" y="-8.3" font-family="Times,serif" font-size="14.00">updated_at :timestamp without time zone</text>
</g>
<!-- Genre -->
<g id="node4" class="node"><title>Genre</title>
<path fill="none" stroke="black" d="M416,-594.5C416,-594.5 636,-594.5 636,-594.5 642,-594.5 648,-600.5 648,-606.5 648,-606.5 648,-673.5 648,-673.5 648,-679.5 642,-685.5 636,-685.5 636,-685.5 416,-685.5 416,-685.5 410,-685.5 404,-679.5 404,-673.5 404,-673.5 404,-606.5 404,-606.5 404,-600.5 410,-594.5 416,-594.5"/>
<text text-anchor="middle" x="526" y="-670.3" font-family="Times,serif" font-size="14.00">Genre</text>
<polyline fill="none" stroke="black" points="404,-662.5 648,-662.5 "/>
<text text-anchor="start" x="412" y="-647.3" font-family="Times,serif" font-size="14.00">id :integer</text>
<text text-anchor="start" x="412" y="-632.3" font-family="Times,serif" font-size="14.00">name :character varying</text>
<text text-anchor="start" x="412" y="-617.3" font-family="Times,serif" font-size="14.00">created_at :timestamp without time zone</text>
<text text-anchor="start" x="412" y="-602.3" font-family="Times,serif" font-size="14.00">updated_at :timestamp without time zone</text>
</g>
<!-- User -->
<g id="node5" class="node"><title>User</title>
<path fill="none" stroke="black" d="M288.5,-316.5C288.5,-316.5 577.5,-316.5 577.5,-316.5 583.5,-316.5 589.5,-322.5 589.5,-328.5 589.5,-328.5 589.5,-545.5 589.5,-545.5 589.5,-551.5 583.5,-557.5 577.5,-557.5 577.5,-557.5 288.5,-557.5 288.5,-557.5 282.5,-557.5 276.5,-551.5 276.5,-545.5 276.5,-545.5 276.5,-328.5 276.5,-328.5 276.5,-322.5 282.5,-316.5 288.5,-316.5"/>
<text text-anchor="middle" x="433" y="-542.3" font-family="Times,serif" font-size="14.00">User</text>
<polyline fill="none" stroke="black" points="276.5,-534.5 589.5,-534.5 "/>
<text text-anchor="start" x="284.5" y="-519.3" font-family="Times,serif" font-size="14.00">id :integer</text>
<text text-anchor="start" x="284.5" y="-504.3" font-family="Times,serif" font-size="14.00">email :character varying</text>
<text text-anchor="start" x="284.5" y="-489.3" font-family="Times,serif" font-size="14.00">encrypted_password :character varying</text>
<text text-anchor="start" x="284.5" y="-474.3" font-family="Times,serif" font-size="14.00">reset_password_token :character varying</text>
<text text-anchor="start" x="284.5" y="-459.3" font-family="Times,serif" font-size="14.00">reset_password_sent_at :timestamp without time zone</text>
<text text-anchor="start" x="284.5" y="-444.3" font-family="Times,serif" font-size="14.00">remember_created_at :timestamp without time zone</text>
<text text-anchor="start" x="284.5" y="-429.3" font-family="Times,serif" font-size="14.00">sign_in_count :integer</text>
<text text-anchor="start" x="284.5" y="-414.3" font-family="Times,serif" font-size="14.00">current_sign_in_at :timestamp without time zone</text>
<text text-anchor="start" x="284.5" y="-399.3" font-family="Times,serif" font-size="14.00">last_sign_in_at :timestamp without time zone</text>
<text text-anchor="start" x="284.5" y="-384.3" font-family="Times,serif" font-size="14.00">current_sign_in_ip :inet</text>
<text text-anchor="start" x="284.5" y="-369.3" font-family="Times,serif" font-size="14.00">last_sign_in_ip :inet</text>
<text text-anchor="start" x="284.5" y="-354.3" font-family="Times,serif" font-size="14.00">created_at :timestamp without time zone</text>
<text text-anchor="start" x="284.5" y="-339.3" font-family="Times,serif" font-size="14.00">updated_at :timestamp without time zone</text>
<text text-anchor="start" x="284.5" y="-324.3" font-family="Times,serif" font-size="14.00">role :integer</text>
</g>
<!-- Genre&#45;&gt;User -->
<g id="edge2" class="edge"><title>Genre&#45;&gt;User</title>
<path fill="none" stroke="#8e7424" d="M501.995,-587.119C499.045,-580.743 495.936,-574.024 492.736,-567.107"/>
<ellipse fill="none" stroke="#8e7424" cx="503.681" cy="-590.761" rx="4.00002" ry="4.00002"/>
<polygon fill="#8e7424" stroke="#8e7424" points="492.521,-566.643 492.406,-555.677 490.422,-562.105 488.322,-557.567 488.322,-557.567 488.322,-557.567 490.422,-562.105 484.238,-559.457 492.521,-566.643 492.521,-566.643"/>
</g>
<!-- Song -->
<g id="node6" class="node"><title>Song</title>
<path fill="none" stroke="black" d="M473,-158.5C473,-158.5 693,-158.5 693,-158.5 699,-158.5 705,-164.5 705,-170.5 705,-170.5 705,-267.5 705,-267.5 705,-273.5 699,-279.5 693,-279.5 693,-279.5 473,-279.5 473,-279.5 467,-279.5 461,-273.5 461,-267.5 461,-267.5 461,-170.5 461,-170.5 461,-164.5 467,-158.5 473,-158.5"/>
<text text-anchor="middle" x="583" y="-264.3" font-family="Times,serif" font-size="14.00">Song</text>
<polyline fill="none" stroke="black" points="461,-256.5 705,-256.5 "/>
<text text-anchor="start" x="469" y="-241.3" font-family="Times,serif" font-size="14.00">id :integer</text>
<text text-anchor="start" x="469" y="-226.3" font-family="Times,serif" font-size="14.00">name :character varying</text>
<text text-anchor="start" x="469" y="-211.3" font-family="Times,serif" font-size="14.00">duration :integer</text>
<text text-anchor="start" x="469" y="-196.3" font-family="Times,serif" font-size="14.00">created_at :timestamp without time zone</text>
<text text-anchor="start" x="469" y="-181.3" font-family="Times,serif" font-size="14.00">updated_at :timestamp without time zone</text>
<text text-anchor="start" x="469" y="-166.3" font-family="Times,serif" font-size="14.00">genre_id :integer</text>
</g>
<!-- Genre&#45;&gt;Song -->
<g id="edge1" class="edge"><title>Genre&#45;&gt;Song</title>
<path fill="none" stroke="#4efe10" d="M581.643,-587.966C588.728,-578.727 594.919,-568.625 599,-558 632.731,-470.188 618.005,-359.989 602.245,-289.764"/>
<ellipse fill="none" stroke="#4efe10" cx="579.118" cy="-591.104" rx="4.00002" ry="4.00002"/>
<polygon fill="#4efe10" stroke="#4efe10" points="602.171,-289.443 604.302,-278.687 601.044,-284.572 599.917,-279.7 599.917,-279.7 599.917,-279.7 601.044,-284.572 595.533,-280.714 602.171,-289.443 602.171,-289.443"/>
</g>
<!-- User&#45;&gt;UserSong -->
<g id="edge3" class="edge"><title>User&#45;&gt;UserSong</title>
<path fill="none" stroke="#d3ab07" d="M429.548,-308.218C431.396,-260.225 437.324,-205.757 452,-158 454.819,-148.829 458.655,-139.598 463.008,-130.677"/>
<ellipse fill="none" stroke="#d3ab07" cx="429.403" cy="-312.482" rx="4" ry="4"/>
<polygon fill="#d3ab07" stroke="#d3ab07" points="463.146,-130.407 471.714,-123.562 465.428,-125.958 467.709,-121.509 467.709,-121.509 467.709,-121.509 465.428,-125.958 463.705,-119.455 463.146,-130.407 463.146,-130.407"/>
</g>
<!-- User&#45;&gt;Song -->
<g id="edge4" class="edge"><title>User&#45;&gt;Song</title>
<path fill="none" stroke="#4cb891" d="M521.856,-308.048C526.527,-301.32 531.125,-294.7 535.572,-288.296"/>
<polygon fill="#4cb891" stroke="#4cb891" points="521.82,-308.1 512.42,-313.747 518.968,-312.206 516.116,-316.313 516.116,-316.313 516.116,-316.313 518.968,-312.206 519.812,-318.88 521.82,-308.1 521.82,-308.1"/>
<polygon fill="#4cb891" stroke="#4cb891" points="535.832,-287.921 545.232,-282.275 538.684,-283.815 541.536,-279.708 541.536,-279.708 541.536,-279.708 538.684,-283.815 537.84,-277.141 535.832,-287.921 535.832,-287.921"/>
</g>
<!-- Song&#45;&gt;UserSong -->
<g id="edge5" class="edge"><title>Song&#45;&gt;UserSong</title>
<path fill="none" stroke="#98d516" d="M550.688,-150.79C547.491,-144.141 544.243,-137.384 541.038,-130.72"/>
<ellipse fill="none" stroke="#98d516" cx="552.484" cy="-154.527" rx="4.00002" ry="4.00002"/>
<polygon fill="#98d516" stroke="#98d516" points="541.038,-130.72 540.761,-119.757 538.872,-126.214 536.705,-121.707 536.705,-121.707 536.705,-121.707 538.872,-126.214 532.65,-123.657 541.038,-130.72 541.038,-130.72"/>
</g>
</g>
</svg>
