<?xml version="1.0" encoding="UTF-8" standalone="no"?>
<!DOCTYPE svg PUBLIC "-//W3C//DTD SVG 1.1//EN"
 "http://www.w3.org/Graphics/SVG/1.1/DTD/svg11.dtd">
<!-- Generated by graphviz version 2.38.0 (20140413.2041)
 -->
<!-- Title: models_diagram Pages: 1 -->
<svg width="501pt" height="302pt"
 viewBox="0.00 0.00 500.60 302.00" xmlns="http://www.w3.org/2000/svg" xmlns:xlink="http://www.w3.org/1999/xlink">
<g id="graph0" class="graph" transform="scale(1 1) rotate(0) translate(4 298)">
<title>models_diagram</title>
<polygon fill="none" stroke="none" points="-4,4 -4,-298 496.597,-298 496.597,4 -4,4"/>
<!-- _diagram_info -->
<g id="node1" class="node"><title>_diagram_info</title>
<text text-anchor="start" x="8" y="-279.6" font-family="Times,serif" font-size="13.00">Models diagram</text>
<text text-anchor="start" x="8" y="-265.6" font-family="Times,serif" font-size="13.00">Date: Sep 11 2017 &#45; 11:44</text>
<text text-anchor="start" x="8" y="-251.6" font-family="Times,serif" font-size="13.00">Migration version: 20170911141852</text>
<text text-anchor="start" x="8" y="-237.6" font-family="Times,serif" font-size="13.00">Generated by RailRoady 1.5.3</text>
<text text-anchor="start" x="8" y="-223.6" font-family="Times,serif" font-size="13.00">http://railroady.prestonlee.com</text>
</g>
<!-- ApplicationRecord -->
<g id="node2" class="node"><title>ApplicationRecord</title>
<ellipse fill="none" stroke="black" cx="309" cy="-255" rx="77.1866" ry="18"/>
<text text-anchor="middle" x="309" y="-251.3" font-family="Times,serif" font-size="14.00">ApplicationRecord</text>
</g>
<!-- UserSong -->
<g id="node3" class="node"><title>UserSong</title>
<ellipse fill="none" stroke="black" cx="435" cy="-18" rx="45.4919" ry="18"/>
<text text-anchor="middle" x="435" y="-14.3" font-family="Times,serif" font-size="14.00">UserSong</text>
</g>
<!-- Genre -->
<g id="node4" class="node"><title>Genre</title>
<ellipse fill="none" stroke="black" cx="437" cy="-255" rx="32.4942" ry="18"/>
<text text-anchor="middle" x="437" y="-251.3" font-family="Times,serif" font-size="14.00">Genre</text>
</g>
<!-- User -->
<g id="node5" class="node"><title>User</title>
<ellipse fill="none" stroke="black" cx="409" cy="-162" rx="27.0966" ry="18"/>
<text text-anchor="middle" x="409" y="-158.3" font-family="Times,serif" font-size="14.00">User</text>
</g>
<!-- Genre&#45;&gt;User -->
<g id="edge2" class="edge"><title>Genre&#45;&gt;User</title>
<path fill="none" stroke="#e0f1c4" d="M429.341,-229.107C425.567,-216.844 421.015,-202.048 417.174,-189.566"/>
<ellipse fill="none" stroke="#e0f1c4" cx="430.557" cy="-233.06" rx="4.00001" ry="4.00001"/>
<polygon fill="#e0f1c4" stroke="#e0f1c4" points="417.089,-189.29 418.449,-178.409 415.619,-184.511 414.148,-179.732 414.148,-179.732 414.148,-179.732 415.619,-184.511 409.847,-181.056 417.089,-189.29 417.089,-189.29"/>
</g>
<!-- Song -->
<g id="node6" class="node"><title>Song</title>
<ellipse fill="none" stroke="black" cx="464" cy="-90" rx="28.6953" ry="18"/>
<text text-anchor="middle" x="464" y="-86.3" font-family="Times,serif" font-size="14.00">Song</text>
</g>
<!-- Genre&#45;&gt;Song -->
<g id="edge1" class="edge"><title>Genre&#45;&gt;Song</title>
<path fill="none" stroke="#3bd7db" d="M441.15,-228.945C446.096,-199.085 454.333,-149.36 459.449,-118.473"/>
<ellipse fill="none" stroke="#3bd7db" cx="440.492" cy="-232.918" rx="4.00001" ry="4.00001"/>
<polygon fill="#3bd7db" stroke="#3bd7db" points="459.484,-118.262 465.558,-109.132 460.301,-113.33 461.118,-108.397 461.118,-108.397 461.118,-108.397 460.301,-113.33 456.679,-107.661 459.484,-118.262 459.484,-118.262"/>
</g>
<!-- User&#45;&gt;UserSong -->
<g id="edge3" class="edge"><title>User&#45;&gt;UserSong</title>
<path fill="none" stroke="#8778da" d="M413.591,-135.929C418.205,-110.725 425.297,-71.9942 430.039,-46.0947"/>
<ellipse fill="none" stroke="#8778da" cx="412.857" cy="-139.937" rx="4.00001" ry="4.00001"/>
<polygon fill="#8778da" stroke="#8778da" points="430.052,-46.0257 436.279,-36.9998 430.952,-41.1075 431.853,-36.1893 431.853,-36.1893 431.853,-36.1893 430.952,-41.1075 427.426,-35.3788 430.052,-46.0257 430.052,-46.0257"/>
</g>
<!-- User&#45;&gt;Song -->
<g id="edge4" class="edge"><title>User&#45;&gt;Song</title>
<path fill="none" stroke="#eaf594" d="M427.322,-137.681C433.084,-130.347 439.454,-122.241 445.246,-114.869"/>
<polygon fill="#eaf594" stroke="#eaf594" points="427.112,-137.948 417.396,-143.031 424.023,-141.879 420.934,-145.811 420.934,-145.811 420.934,-145.811 424.023,-141.879 424.473,-148.591 427.112,-137.948 427.112,-137.948"/>
<polygon fill="#eaf594" stroke="#eaf594" points="445.53,-114.507 455.247,-109.424 448.619,-110.576 451.708,-106.644 451.708,-106.644 451.708,-106.644 448.619,-110.576 448.17,-103.864 445.53,-114.507 445.53,-114.507"/>
</g>
<!-- Song&#45;&gt;UserSong -->
<g id="edge5" class="edge"><title>Song&#45;&gt;UserSong</title>
<path fill="none" stroke="#880aa2" d="M453.965,-64.7779C451.383,-58.544 448.59,-51.8046 445.963,-45.4634"/>
<ellipse fill="none" stroke="#880aa2" cx="455.596" cy="-68.7155" rx="4.00001" ry="4.00001"/>
<polygon fill="#880aa2" stroke="#880aa2" points="445.852,-45.1948 446.182,-34.2339 443.938,-40.5755 442.025,-35.9562 442.025,-35.9562 442.025,-35.9562 443.938,-40.5755 437.867,-37.6786 445.852,-45.1948 445.852,-45.1948"/>
</g>
</g>
</svg>
